<svg preserveAspectRatio="none" width="100%" height="100%" overflow="visible" style="display: block;" viewBox="0 0 105.096 14.9952" fill="none" xmlns="http://www.w3.org/2000/svg">
<g id="ChainPulse">
<path id="Vector" d="M100.279 14.9952C99.2 14.9952 98.2709 14.7766 97.4921 14.3394C96.7179 13.8976 96.1212 13.2736 95.7022 12.4675C95.2832 11.6568 95.0737 10.6981 95.0737 9.59141C95.0737 8.51201 95.2832 7.5647 95.7022 6.74946C96.1212 5.93423 96.711 5.29889 97.4716 4.84345C98.2367 4.38801 99.134 4.16029 100.163 4.16029C100.856 4.16029 101.5 4.27187 102.097 4.49504C102.698 4.71365 103.222 5.04384 103.668 5.48562C104.119 5.92739 104.469 6.48303 104.72 7.15253C104.97 7.81747 105.096 8.59627 105.096 9.48893V10.2882H96.2351V8.48469H102.356C102.356 8.06568 102.265 7.6945 102.083 7.37114C101.901 7.04778 101.648 6.79501 101.325 6.61283C101.006 6.4261 100.635 6.33274 100.211 6.33274C99.7693 6.33274 99.3776 6.43521 99.036 6.64016C98.699 6.84055 98.4349 7.11154 98.2436 7.45312C98.0523 7.79014 97.9544 8.16588 97.9498 8.58033V10.2951C97.9498 10.8143 98.0455 11.2629 98.2367 11.6409C98.4326 12.0189 98.7081 12.3104 99.0634 12.5153C99.4186 12.7203 99.8399 12.8228 100.327 12.8228C100.651 12.8228 100.947 12.7772 101.215 12.6861C101.484 12.595 101.714 12.4584 101.905 12.2762C102.097 12.094 102.242 11.8709 102.343 11.6067L105.034 11.7843C104.898 12.4311 104.617 12.9958 104.194 13.4786C103.775 13.9568 103.233 14.3303 102.568 14.599C101.908 14.8631 101.145 14.9952 100.279 14.9952Z" fill="var(--fill-0, white)"/>
<path id="Vector_2" d="M93.4256 7.28916L90.7613 7.45312C90.7158 7.2254 90.6179 7.02045 90.4676 6.83827C90.3173 6.65154 90.1192 6.50353 89.8732 6.39422C89.6318 6.28036 89.3426 6.22343 89.0056 6.22343C88.5547 6.22343 88.1744 6.31907 87.8647 6.51036C87.555 6.69709 87.4002 6.94758 87.4002 7.26183C87.4002 7.51232 87.5004 7.7241 87.7008 7.89717C87.9012 8.07024 88.245 8.20915 88.7323 8.3139L90.6315 8.69647C91.6517 8.90597 92.4123 9.24299 92.9133 9.70754C93.4143 10.1721 93.6648 10.7824 93.6648 11.5384C93.6648 12.2261 93.4621 12.8296 93.0567 13.3488C92.656 13.868 92.1049 14.2733 91.4035 14.5648C90.7067 14.8517 89.9028 14.9952 88.9919 14.9952C87.6028 14.9952 86.4961 14.706 85.6718 14.1276C84.852 13.5446 84.3715 12.7522 84.2303 11.7502L87.0928 11.5999C87.1793 12.0235 87.3888 12.3468 87.7213 12.57C88.0537 12.7886 88.4796 12.8979 88.9988 12.8979C89.5089 12.8979 89.9188 12.8 90.2285 12.6041C90.5427 12.4037 90.7021 12.1464 90.7067 11.8322C90.7021 11.568 90.5905 11.3517 90.3719 11.1832C90.1533 11.0101 89.8163 10.878 89.3609 10.7869L87.5437 10.4249C86.5189 10.2199 85.756 9.86467 85.2551 9.35913C84.7586 8.85359 84.5104 8.20915 84.5104 7.42579C84.5104 6.75174 84.6926 6.17105 85.0569 5.68373C85.4259 5.19641 85.9428 4.82068 86.6077 4.55652C87.2772 4.29237 88.0606 4.16029 88.9578 4.16029C90.2831 4.16029 91.3261 4.44038 92.0867 5.00057C92.8518 5.56076 93.2981 6.32363 93.4256 7.28916Z" fill="var(--fill-0, white)"/>
<path id="Vector_3" d="M82.3634 0.799449V14.7906H79.4531V0.799449H82.3634Z" fill="var(--fill-0, white)"/>
<path id="Vector_4" d="M74.215 10.3226V4.29716H77.1252V14.7905H74.3311V12.8845H74.2218C73.985 13.4993 73.591 13.9935 73.0399 14.3669C72.4934 14.7404 71.8262 14.9271 71.0383 14.9271C70.3369 14.9271 69.7198 14.7677 69.1869 14.4489C68.6541 14.1301 68.2373 13.6769 67.9367 13.0894C67.6407 12.5019 67.4904 11.7983 67.4858 10.9785V4.29716H70.3961V10.4593C70.4007 11.0787 70.5669 11.5683 70.8948 11.9281C71.2227 12.2879 71.6622 12.4678 72.2133 12.4678C72.564 12.4678 72.8919 12.3881 73.1971 12.2286C73.5022 12.0647 73.7481 11.8233 73.9349 11.5045C74.1262 11.1857 74.2195 10.7917 74.215 10.3226Z" fill="var(--fill-0, white)"/>
<path id="Vector_5" d="M55.0848 14.7906V0.799449H60.6048C61.6659 0.799449 62.57 1.00212 63.3169 1.40746C64.0638 1.80825 64.6331 2.36616 65.0248 3.0812C65.421 3.79169 65.6191 4.61148 65.6191 5.54058C65.6191 6.46967 65.4187 7.28946 65.018 7.99995C64.6172 8.71043 64.0365 9.2638 63.2759 9.66003C62.5199 10.0563 61.6044 10.2544 60.5296 10.2544H57.0113V7.88381H60.0514C60.6207 7.88381 61.0898 7.78589 61.4587 7.59005C61.8322 7.38966 62.11 7.11412 62.2922 6.76343C62.4789 6.40819 62.5722 6.00057 62.5722 5.54058C62.5722 5.07603 62.4789 4.67069 62.2922 4.32455C62.11 3.97386 61.8322 3.70288 61.4587 3.51159C61.0852 3.31575 60.6116 3.21783 60.0377 3.21783H58.0429V14.7906H55.0848Z" fill="var(--fill-0, white)"/>
<path id="Vector_6" d="M45.9732 8.72379V14.7902H43.0629V4.29692H45.8365V6.14828H45.9595C46.1918 5.53799 46.5812 5.05523 47.1277 4.69998C47.6742 4.34019 48.3369 4.16029 49.1157 4.16029C49.8444 4.16029 50.4797 4.31969 51.0217 4.6385C51.5637 4.95731 51.985 5.41275 52.2856 6.00482C52.5861 6.59234 52.7364 7.29371 52.7364 8.10895V14.7902H49.8262V8.62815C49.8307 7.98598 49.6668 7.485 49.3343 7.1252C49.0018 6.76085 48.5441 6.57867 47.9611 6.57867C47.5695 6.57867 47.2233 6.66293 46.9227 6.83144C46.6267 6.99995 46.3944 7.24589 46.2259 7.56925C46.062 7.88806 45.9777 8.27291 45.9732 8.72379Z" fill="var(--fill-0, white)"/>
<path id="Vector_7" d="M37.8216 14.7904V4.29707H40.7319V14.7904H37.8216ZM39.2836 2.94442C38.8509 2.94442 38.4797 2.80095 38.17 2.51403C37.8649 2.22255 37.7123 1.87413 37.7123 1.46879C37.7123 1.06801 37.8649 0.724149 38.17 0.437223C38.4797 0.145741 38.8509 0 39.2836 0C39.7163 0 40.0852 0.145741 40.3903 0.437223C40.7 0.724149 40.8549 1.06801 40.8549 1.46879C40.8549 1.87413 40.7 2.22255 40.3903 2.51403C40.0852 2.80095 39.7163 2.94442 39.2836 2.94442Z" fill="var(--fill-0, white)"/>
<path id="Vector_8" d="M29.6542 14.9884C28.9847 14.9884 28.3881 14.8722 27.8644 14.64C27.3406 14.4031 26.9262 14.0547 26.621 13.5947C26.3204 13.1302 26.1701 12.5518 26.1701 11.8595C26.1701 11.2765 26.2772 10.7869 26.4912 10.3907C26.7053 9.99447 26.9968 9.67566 27.3657 9.43428C27.7346 9.1929 28.1536 9.01072 28.6227 8.88775C29.0963 8.76478 29.5928 8.67825 30.112 8.62815C30.7223 8.56439 31.2141 8.50518 31.5876 8.45053C31.961 8.39132 32.232 8.30479 32.4005 8.19093C32.5691 8.07707 32.6533 7.90856 32.6533 7.68539V7.6444C32.6533 7.21173 32.5167 6.87699 32.2434 6.64016C31.9747 6.40333 31.5921 6.28491 31.0957 6.28491C30.572 6.28491 30.1552 6.40105 29.8455 6.63333C29.5358 6.86105 29.3309 7.14797 29.2307 7.49411L26.539 7.2755C26.6757 6.63788 26.9444 6.0868 27.3452 5.62225C27.746 5.15315 28.2629 4.79335 28.8959 4.54286C29.5336 4.28781 30.2714 4.16029 31.1094 4.16029C31.6923 4.16029 32.2503 4.2286 32.7831 4.36524C33.3205 4.50187 33.7965 4.71365 34.2109 5.00057C34.6299 5.2875 34.9601 5.65641 35.2015 6.10729C35.4429 6.55362 35.5636 7.08877 35.5636 7.71272V14.7902H32.8036V13.3351H32.7216C32.5531 13.663 32.3277 13.9522 32.0453 14.2027C31.7629 14.4487 31.4236 14.6422 31.0274 14.7834C30.6312 14.9201 30.1734 14.9884 29.6542 14.9884ZM30.4877 12.9799C30.9158 12.9799 31.2938 12.8956 31.6217 12.7271C31.9497 12.554 32.207 12.3218 32.3937 12.0303C32.5804 11.7388 32.6738 11.4086 32.6738 11.0397V9.92615C32.5827 9.98536 32.4575 10.04 32.2981 10.0901C32.1432 10.1357 31.9679 10.1789 31.772 10.2199C31.5762 10.2563 31.3804 10.2905 31.1845 10.3224C30.9887 10.3497 30.8111 10.3748 30.6517 10.3975C30.3101 10.4476 30.0118 10.5273 29.7567 10.6366C29.5017 10.7459 29.3036 10.894 29.1624 11.0807C29.0212 11.2629 28.9506 11.4906 28.9506 11.7639C28.9506 12.1601 29.0941 12.463 29.381 12.6725C29.6725 12.8774 30.0414 12.9799 30.4877 12.9799Z" fill="var(--fill-0, white)"/>
<path id="Vector_9" d="M17.5674 8.7241V14.7906H14.6571V0.799449H17.4854V6.14859H17.6084C17.8452 5.52919 18.2278 5.04415 18.7561 4.69346C19.2844 4.33822 19.9471 4.16059 20.7441 4.16059C21.4728 4.16059 22.1081 4.32 22.6501 4.63881C23.1966 4.95306 23.6202 5.40622 23.9208 5.99829C24.2259 6.58581 24.3762 7.28946 24.3717 8.10926V14.7906H21.4614V8.62846C21.4659 7.98173 21.302 7.47847 20.9695 7.11867C20.6416 6.75888 20.1816 6.57898 19.5895 6.57898C19.1933 6.57898 18.8426 6.66323 18.5375 6.83175C18.2369 7.00026 18.0001 7.2462 17.827 7.56956C17.6585 7.88837 17.5719 8.27321 17.5674 8.7241Z" fill="var(--fill-0, white)"/>
<path id="Vector_10" d="M12.5906 5.69743H9.59839C9.54374 5.3103 9.43215 4.96645 9.26364 4.66586C9.09513 4.36071 8.8788 4.10111 8.61464 3.88706C8.35049 3.673 8.04534 3.50904 7.69921 3.39518C7.35763 3.28132 6.98644 3.22439 6.58566 3.22439C5.86151 3.22439 5.23072 3.40429 4.69331 3.76409C4.15589 4.11933 3.73916 4.63853 3.44312 5.32169C3.14709 6.0003 2.99907 6.82464 2.99907 7.79473C2.99907 8.79214 3.14709 9.63015 3.44312 10.3088C3.74371 10.9874 4.16272 11.4997 4.70014 11.8459C5.23756 12.192 5.85923 12.3651 6.56516 12.3651C6.9614 12.3651 7.32802 12.3127 7.66505 12.2079C8.00663 12.1032 8.3095 11.9506 8.57365 11.7502C8.83781 11.5453 9.05642 11.2971 9.22948 11.0056C9.40711 10.7141 9.53007 10.3816 9.59839 10.0082L12.5906 10.0218C12.5132 10.664 12.3196 11.2834 12.0099 11.88C11.7048 12.4721 11.2926 13.0027 10.7734 13.4718C10.2588 13.9363 9.64393 14.3052 8.92889 14.5785C8.21841 14.8472 7.41456 14.9816 6.51734 14.9816C5.26944 14.9816 4.15361 14.6992 3.16986 14.1344C2.19066 13.5697 1.41642 12.7522 0.847118 11.6819C0.282372 10.6116 0 9.3159 0 7.79473C0 6.26901 0.286927 4.971 0.860781 3.90072C1.43464 2.83044 2.21344 2.0152 3.19719 1.45501C4.18094 0.890262 5.28765 0.60789 6.51734 0.60789C7.32802 0.60789 8.0795 0.72175 8.77177 0.94947C9.46859 1.17719 10.0857 1.50966 10.6231 1.94688C11.1605 2.37955 11.5978 2.91014 11.9348 3.53864C12.2764 4.16715 12.495 4.88675 12.5906 5.69743Z" fill="var(--fill-0, white)"/>
</g>
</svg>
